<?xml version="1.0" encoding="UTF-8"?>
<!-- Created with Inkscape (http://www.inkscape.org/) -->
<svg width="4.7876mm" height="3.8123mm" version="1.1" viewBox="0 0 4.7876 3.8123" xmlns="http://www.w3.org/2000/svg">
 <g transform="translate(-89.185 -183.81)" fill="#7f8081">
  <path d="m89.849 183.81c-0.36379 0-0.66406 0.29993-0.66406 0.66406v1.459c0 0.36412 0.30027 0.66406 0.66406 0.66406h1.2583l1.3555 0.98047c0.15275 0.11093 0.36704 3e-3 0.36914-0.18555l0.0078-0.79492h0.46681c0.36379 0 0.66602-0.29994 0.66602-0.66406v-1.459c0-0.36413-0.30222-0.66406-0.66602-0.66406zm-0.06486 0.42111h3.5871c0.11873 0 0.20808 0.0856 0.20808 0.20404v1.5091c0 0.11838-0.08934 0.20605-0.20808 0.20605h-0.71918c-0.13118 4e-5 -0.23814 0.1052-0.2404 0.23636l-0.0061 0.59798-1.0909-0.7899c-0.04128-0.0293-0.09077-0.0449-0.14141-0.0445h-1.3892c-0.11873 0-0.20606-0.0877-0.20606-0.20605v-1.5091c0-0.11837 0.08733-0.20403 0.20606-0.20403z" color="#000000" fill="#7f8081" stop-color="#000000" stroke-linecap="round" stroke-linejoin="round" style="-inkscape-stroke:none;font-variation-settings:normal;paint-order:markers stroke fill"/>
 </g>
</svg>
