<?xml version="1.0" encoding="UTF-8"?>
<!-- Created with Inkscape (http://www.inkscape.org/) -->
<svg width="4.4265mm" height="6.35mm" version="1.1" viewBox="0 0 4.4265 6.35" xmlns="http://www.w3.org/2000/svg">
 <g transform="translate(-88.563 -182.85)" fill="#7f8081">
  <g transform="matrix(.22025 0 0 .22025 71.67 178)" fill="#7f8081" stop-color="#000000" stroke-linecap="round" stroke-linejoin="round" stroke-width="4.5404" style="-inkscape-stroke:none;font-variation-settings:normal;paint-order:markers stroke fill">
   <path d="m82.138 50.209c-1.5079-0.80064-2.4858-1.6245-3.4537-2.9097-2.3204-3.0811-2.6363-7.5209-0.79075-11.112 0.47927-0.93255 1.1965-1.9629 3.2633-4.6879 2.0924-2.7588 3.0656-5.1668 3.2724-8.097 0.053-0.75073 0.12573-1.365 0.16167-1.365 0.22686 0 2.2244 1.5049 3.0809 2.3211 2.5721 2.451 3.9698 5.4165 4.1542 8.8138 0.0516 0.95069 0.153 1.7285 0.22533 1.7285 1.054-0.71111 1.6168-1.9472 1.7353-2.872 0.72245 0.38829 1.7862 2.9857 2.3381 4.8015 1.1679 3.8426 0.81133 7.2589-1.0477 10.038-1.0038 1.5008-2.1055 2.4766-3.7655 3.3351l-1.2864 0.66527 0.85315-0.90909c1.3811-1.4717 1.9196-3.1104 1.6493-5.0191-0.19877-1.4036-0.69799-2.4068-2.2358-4.4927-1.4671-1.9901-2.087-3.3408-2.2285-4.856l-0.0965-1.0335-0.76256 0.7511c-0.77722 0.76553-1.8552 2.4438-2.184 3.4001-0.53795 1.8597-0.46534 3.6482-0.57034 5.5174-1.137-0.72424-1.5711-1.5457-1.8305-2.8143l-0.18986-0.96476-0.5695 1.206c-0.73976 1.5665-1.1379 3.4615-1.0013 4.7659 0.13629 1.3013 0.84681 2.7703 1.7773 3.6746 0.41014 0.39861 0.72098 0.72285 0.69076 0.72052-0.0302-0.0023-0.5652-0.27515-1.1888-0.60628z" fill="#7f8081" stop-color="#000000" stroke-linecap="round" stroke-linejoin="round" stroke-width="4.5404" style="-inkscape-stroke:none;font-variation-settings:normal;paint-order:markers stroke fill"/>
  </g>
 </g>
</svg>
