<?xml version="1.0" encoding="UTF-8" standalone="no"?>
<svg
   version="1.1"
   width="220.85529pt"
   height="56.033848pt"
   id="svg20529"
   viewBox="0 0 220.85528 56.033848"
   xml:space="preserve"
   xmlns="http://www.w3.org/2000/svg"><defs
     id="defs20533" /><g
     id="g47563"
     transform="translate(-916.48674,145.78097)"><g
       id="Layer1000"
       style="fill:#cc0000;fill-opacity:1;stroke-width:1.45147"
       transform="matrix(0.68895456,0,0,0.68895456,752.14881,-371.63075)"><path
         d="m 298.2076,376.8653 h -1.3414 v -5.9046 l -1.2498,1.2955 -0.7795,-0.8139 2.2014,-2.2243 h 1.1693 z m 3.2629,0.1261 c -0.894,0 -1.6242,-0.2829 -2.1897,-0.8484 l 0.619,-1.0088 c 0.4281,0.443 0.9516,0.6647 1.5707,0.6647 0.6497,0 1.1486,-0.2463 1.4964,-0.7393 0.3478,-0.4932 0.5216,-1.0837 0.5216,-1.7713 v -0.2294 c -0.1987,0.2826 -0.4853,0.5329 -0.8597,0.7509 -0.3748,0.2177 -0.7722,0.3269 -1.1926,0.3269 -0.7262,0 -1.3357,-0.218 -1.8286,-0.6537 -0.493,-0.4357 -0.7396,-1.0434 -0.7396,-1.823 0,-0.7262 0.262,-1.3357 0.7855,-1.8286 0.5236,-0.4929 1.2019,-0.7396 2.035,-0.7396 0.7186,0 1.3204,0.1854 1.8057,0.5562 0.4855,0.3705 0.8314,0.8444 1.0377,1.4216 0.2064,0.5771 0.3096,1.2364 0.3096,1.9777 0,1.1466 -0.2943,2.0906 -0.883,2.8321 -0.5885,0.7413 -1.4176,1.112 -2.488,1.112 z m 0.3212,-4.013 c 0.3285,0 0.642,-0.0802 0.9402,-0.2406 0.298,-0.1605 0.5426,-0.3785 0.7336,-0.6534 -0.0382,-0.4816 -0.1967,-0.902 -0.4756,-1.2614 -0.2792,-0.3592 -0.69,-0.5389 -1.2325,-0.5389 -0.4663,0 -0.8371,0.1378 -1.1123,0.413 -0.275,0.275 -0.4128,0.5808 -0.4128,0.917 0,0.4433 0.1491,0.7815 0.4474,1.0148 0.2979,0.233 0.6686,0.3495 1.112,0.3495 z m 5.7968,3.8869 h -1.4675 l 2.8894,-6.4664 h -3.9671 v -1.1809 h 5.5148 v 0.9286 z m 7.964,0 h -1.3414 v -1.7311 h -3.6459 v -1.078 l 3.1414,-4.8382 h 1.8459 v 4.735 h 1.0204 v 1.1812 h -1.0204 z m -1.3414,-2.9123 v -3.5311 l -2.3275,3.5311 z"
         style="fill:#cc0000;fill-opacity:1;fill-rule:evenodd;stroke-width:1.45147"
         id="path20491" /><path
         d="m 297.4167,386.6213 h -5.5378 v -1.0548 c 1.5976,-1.2078 2.685,-2.1039 3.2621,-2.6886 0.5769,-0.5848 0.8655,-1.137 0.8655,-1.6569 0,-0.3744 -0.1355,-0.663 -0.4071,-0.8654 -0.2713,-0.2027 -0.5981,-0.3039 -0.9802,-0.3039 -0.8408,0 -1.5287,0.3056 -2.0636,0.9173 l -0.7799,-0.883 c 0.3289,-0.3974 0.7436,-0.7013 1.2442,-0.9113 0.5006,-0.2104 1.0261,-0.3155 1.5763,-0.3155 0.7798,0 1.4372,0.2103 1.9721,0.6307 0.5352,0.4204 0.8025,0.9975 0.8025,1.7311 0,0.6574 -0.275,1.311 -0.8255,1.9607 -0.5502,0.6497 -1.3909,1.4026 -2.5222,2.2587 h 3.3936 z m 5.0287,-0.2064 c -0.4051,0.2294 -0.8638,0.3439 -1.3757,0.3439 -0.5122,0 -0.9709,-0.1145 -1.3759,-0.3439 -0.4051,-0.2293 -0.7263,-0.5352 -0.9632,-0.9173 -0.2367,-0.3821 -0.4165,-0.8025 -0.5389,-1.2611 -0.1222,-0.4586 -0.1834,-0.9363 -0.1834,-1.4332 0,-0.4969 0.0612,-0.9745 0.1834,-1.4332 0.1224,-0.4586 0.3022,-0.877 0.5389,-1.2555 0.2369,-0.3781 0.5581,-0.682 0.9632,-0.9113 0.405,-0.2293 0.8637,-0.3441 1.3759,-0.3441 0.5119,0 0.9706,0.1148 1.3757,0.3441 0.405,0.2293 0.7262,0.5332 0.9632,0.9113 0.2369,0.3785 0.4164,0.7969 0.5388,1.2555 0.1222,0.4587 0.1834,0.9363 0.1834,1.4332 0,0.4969 -0.0612,0.9746 -0.1834,1.4332 -0.1224,0.4586 -0.3019,0.879 -0.5388,1.2611 -0.237,0.3821 -0.5582,0.688 -0.9632,0.9173 z m -2.6598,-1.6282 c 0.275,0.5199 0.703,0.7798 1.2841,0.7798 0.5808,0 1.0089,-0.2599 1.2841,-0.7798 0.275,-0.5196 0.4127,-1.1809 0.4127,-1.9834 0,-0.5119 -0.0516,-0.9669 -0.1548,-1.3643 -0.1031,-0.3974 -0.2865,-0.7279 -0.5504,-0.9919 -0.2637,-0.2636 -0.5942,-0.3954 -0.9916,-0.3954 -0.3974,0 -0.7282,0.1318 -0.9918,0.3954 -0.2637,0.264 -0.4471,0.5945 -0.5502,0.9919 -0.1032,0.3974 -0.1548,0.8524 -0.1548,1.3643 0,0.8025 0.1375,1.4638 0.4127,1.9834 z m 10.3368,1.8346 h -5.5377 v -1.0548 c 1.5976,-1.2078 2.6849,-2.1039 3.2621,-2.6886 0.5768,-0.5848 0.8654,-1.137 0.8654,-1.6569 0,-0.3744 -0.1355,-0.663 -0.4071,-0.8654 -0.2712,-0.2027 -0.5981,-0.3039 -0.9802,-0.3039 -0.8407,0 -1.5287,0.3056 -2.0636,0.9173 l -0.7798,-0.883 c 0.3288,-0.3974 0.7435,-0.7013 1.2441,-0.9113 0.5006,-0.2104 1.0261,-0.3155 1.5764,-0.3155 0.7798,0 1.4371,0.2103 1.972,0.6307 0.5352,0.4204 0.8025,0.9975 0.8025,1.7311 0,0.6574 -0.275,1.311 -0.8254,1.9607 -0.5502,0.6497 -1.391,1.4026 -2.5223,2.2587 h 3.3936 z m 5.4301,0 h -1.3414 v -1.7311 h -3.6459 v -1.078 l 3.1414,-4.8382 h 1.8459 v 4.735 h 1.0204 v 1.1812 h -1.0204 z m -1.3414,-2.9123 v -3.5311 l -2.3275,3.5311 z"
         style="fill:#cc0000;fill-opacity:1;fill-rule:evenodd;stroke-width:1.45147"
         id="path20493" /></g><path
       d="m 986.69195,-112.11424 c -0.90549,12.490122 -11.32441,22.341966 -24.04527,22.341966 -6.19542,0 -11.84402,-2.337761 -16.11465,-6.177787 0.73843,-1.28366 1.33458,-2.659089 1.77034,-4.104099 3.62397,3.758382 8.71087,6.0969 14.34431,6.0969 10.40845,0 18.95128,-7.98106 19.84616,-18.15698 z m -46.63933,-10.19701 c 3.31753,-8.88834 11.72904,-15.29307 21.68423,-15.66263 v 4.18767 c -8.65603,0.3892 -15.87331,6.30084 -18.21396,14.29581 -1.04411,-1.06567 -2.20769,-2.01381 -3.47027,-2.82085 z"
       style="fill:#cc0000;fill-opacity:1;fill-rule:evenodd;stroke-width:0.999997"
       id="path20496" /><g
       id="Layer1002"
       style="fill:#cc0000;fill-opacity:1;stroke-width:1.45147"
       transform="matrix(1.3614907,0,0,1.3614907,684.61112,-685.92596)"><g
         id="Layer1003"
         style="fill:#cc0000;fill-opacity:1;stroke-width:1.45147"
         transform="matrix(1.2394776,0,0,1.2394776,-103.55195,-116.63568)"><g
           id="Layer1004"
           style="fill:#cc0000;fill-opacity:1;stroke-width:1.45147"><path
             d="m 272.326,441.3509 v -16.5268 h 12.7124 v 16.5268 h -2.5425 v -13.9836 h -7.6274 v 13.9836 z"
             style="fill:#cc0000;fill-opacity:1;fill-rule:evenodd;stroke-width:1.45147"
             id="path20498" /><path
             d="m 286.9453,441.3509 v -16.5268 h 10.1724 v 2.5432 h -7.63 v 3.8094 l 7.63,-10e-5 v 2.5425 h -7.63 v 5.0893 h 7.63 v 2.5425 z"
             style="fill:#cc0000;fill-opacity:1;fill-rule:evenodd;stroke-width:1.45147"
             id="path20500" /><path
             d="m 300.2958,438.8084 c 0.5896,0 1.2712,-0.4499 1.2712,-1.2592 v -12.7251 h 11.4477 l -0.0396,16.5268 h -2.5094 v -13.9836 h -6.3566 v 10.1658 c -1e-4,2.3357 -2.0152,3.8178 -3.8133,3.8178 h -1.2711 v -2.5425 z"
             style="fill:#cc0000;fill-opacity:1;fill-rule:evenodd;stroke-width:1.45147"
             id="path20502" /><path
             d="m 327.0004,424.8241 h 2.5431 v 6.3526 l 7.6274,-10e-5 v -6.3525 h 2.5431 v 16.5268 h -2.5822 v -7.6318 h -7.5491 v 7.6318 h -2.6214 z"
             style="fill:#cc0000;fill-opacity:1;fill-rule:evenodd;stroke-width:1.45147"
             id="path20504" /><path
             d="m 341.66,424.8241 h 10.1639 v 2.5432 h -7.6276 v 13.9836 H 341.66 Z"
             style="fill:#cc0000;fill-opacity:1;fill-rule:evenodd;stroke-width:1.45147"
             id="path20506" /><path
             d="m 314.882,441.3509 v -16.5268 h 10.1724 v 2.5432 l -7.63,10e-5 v 3.8093 h 7.63 v 2.5424 h -7.63 v 5.0894 h 7.63 v 2.5424 z"
             style="fill:#cc0000;fill-opacity:1;fill-rule:evenodd;stroke-width:1.45147"
             id="path20508" /></g></g></g><path
       d="m 978.84945,-115.66181 c -0.41138,-3.79359 -2.12295,-7.19682 -4.68062,-9.75415 -2.35864,-2.35857 -5.43675,-3.998 -8.87677,-4.56108 v 4.14482 c 4.9159,1.08751 8.72051,5.13092 9.45404,10.17041 z m -13.55739,-30.11916 c 15.85484,1.29737 28.43694,14.14816 29.31233,30.11916 h -4.26904 c -0.43983,-6.95624 -3.44195,-13.21635 -8.07303,-17.84764 -4.4359,-4.4357 -10.36622,-7.37671 -16.97026,-8.00352 z m 21.4258,30.11916 c -0.43377,-5.95932 -3.02961,-11.31808 -7.00715,-15.29582 -3.7814,-3.78126 -8.81152,-6.314 -14.41865,-6.92723 v 4.25925 c 4.4379,0.59119 8.41406,2.64338 11.42838,5.6579 3.21177,3.21177 5.33175,7.51526 5.75552,12.3059 z"
       style="fill:#cc0000;fill-opacity:1;fill-rule:evenodd;stroke-width:0.999997"
       id="path20520" /><path
       d="m 929.54744,-121.85937 c 8.86768,0 16.0563,7.18842 16.0563,16.05588 0,8.867742 -7.18862,16.056362 -16.0563,16.056362 -4.33862,0 -8.27475,-1.721559 -11.16423,-4.518095 l 4.76302,-1.731205 c 1.83985,1.203259 4.03865,1.903582 6.40121,1.903582 6.46763,0 11.71058,-5.242944 11.71058,-11.710644 0,-6.46742 -5.24295,-11.71037 -11.71058,-11.71037 -1.859,0 -3.61653,0.43398 -5.1777,1.20485 v -4.69599 c 1.62449,-0.5533 3.36589,-0.85437 5.1777,-0.85437 z"
       style="fill:#cc0000;fill-opacity:1;fill-rule:evenodd;stroke-width:0.999997"
       id="path20522" /><path
       d="m 941.28385,-133.76106 h -24.79712 v -4.23748 h 24.79712 z"
       style="fill:#cc0000;fill-opacity:1;fill-rule:evenodd;stroke-width:0.999997"
       id="path20524" /><path
       d="m 920.72421,-137.99834 v 22.31903 h -4.23748 v -22.31903 z"
       style="fill:#cc0000;fill-opacity:1;fill-rule:evenodd;stroke-width:0.999997"
       id="path20526" /></g></svg>
