<?xml version="1.0" encoding="UTF-8"?>
<!-- Created with Inkscape (http://www.inkscape.org/) -->
<svg width="4.5708mm" height="4.5708mm" version="1.1" viewBox="0 0 4.5708 4.5708" xmlns="http://www.w3.org/2000/svg">
 <g transform="translate(-89.583 -182.71)" fill="#7f8081">
  <g transform="matrix(.61648 .61648 -.61648 .61648 81.614 174.68)" fill="#7f8081" stroke-width="1.147">
   <path d="m15.377-2.259c-0.1778 7.02e-5 -0.29174 0.20092-0.20826 0.36742l0.4532 0.89452v1.3203l-0.68161 0.87695c-0.15469 0.15549-0.05138 0.43158 0.16175 0.4315h1.3482v1.4588l0.21756 0.65061h0.02946l0.21755-0.65061v-1.4588h1.3503c0.21218-0.00177 0.31422-0.2767 0.1602-0.4315l-0.68161-0.87695v-1.3203l0.45269-0.89452c0.08309-0.1657-0.02924-0.3658-0.20619-0.36742zm0.35026 0.45886h1.9441l-0.31024 0.61165h-1.3236zm0.32521 1.169h1.2919v1.0684l0.59311 0.74453-2.5501 0.043202 0.6651-0.78773z" color="#000000" fill="#7f8081" stroke-linecap="round" stroke-linejoin="round" stroke-width="1.147" style="-inkscape-stroke:none;paint-order:markers stroke fill"/>
  </g>
 </g>
</svg>
