<?xml version="1.0" encoding="UTF-8"?>
<!-- Created with Inkscape (http://www.inkscape.org/) -->
<svg width="5.5488mm" height="3.2148mm" version="1.1" viewBox="0 0 5.5488 3.2148" xmlns="http://www.w3.org/2000/svg">
 <g transform="translate(-88.788 -184.91)" fill="#7f8081">
  <path d="m91.563 184.91c-1.5563 0-2.7227 1.459-2.7227 1.459-0.07032 0.0857-0.07032 0.20919 0 0.29492 0 0 1.1664 1.4609 2.7227 1.4609s2.7207-1.4609 2.7207-1.4609c0.07032-0.0857 0.07032-0.20919 0-0.29492 0 0-1.1644-1.459-2.7207-1.459zm2.2e-5 0.43969c1.133 0 2.0279 0.92796 2.2477 1.1657-0.21868 0.23675-1.1138 1.1678-2.2477 1.1678s-2.031-0.931-2.2497-1.1678c0.21975-0.23779 1.1167-1.1657 2.2497-1.1657zm-8.5e-5 0.34151c-0.45303-1e-5 -0.82616 0.37312-0.82616 0.82616 0 0.45303 0.37312 0.82433 0.82616 0.82433 0.45303 0 0.82433-0.3713 0.82433-0.82433-1e-6 -0.45304-0.3713-0.82616-0.82433-0.82616zm6.3e-5 0.40825c0.23279 0 0.41602 0.18517 0.41602 0.41797 0 0.23279-0.18322 0.41601-0.41602 0.41601-0.23279 0-0.41797-0.18322-0.41797-0.41601 0-0.2328 0.18517-0.41797 0.41797-0.41797z" color="#000000" fill="#7f8081" stop-color="#000000" stroke-linecap="round" stroke-linejoin="round" style="-inkscape-stroke:none;font-variation-settings:normal;paint-order:markers stroke fill"/>
 </g>
</svg>
